<?xml version="1.0" encoding="UTF-8"?>
<svg width="21px" height="21px" viewBox="0 0 21 21" version="1.1" xmlns="http://www.w3.org/2000/svg" xmlns:xlink="http://www.w3.org/1999/xlink">
    <!-- Generator: Sketch 64 (93537) - https://sketch.com -->
    <title>Icon-instagram</title>
    <desc>Created with Sketch.</desc>
    <g id="Homepage" stroke="none" stroke-width="1" fill="none" fill-rule="evenodd">
        <g id="Desktop-HD" transform="translate(-1392.000000, -71.000000)" fill="#010002">
            <g id="Social-Media" transform="translate(1362.000000, 71.000000)">
                <path d="M44.8671538,0.138846154 C47.7666264,0.138846154 50.1388462,2.56163471 50.1388462,5.52279286 L50.1388462,5.52279286 L50.1388462,14.7548994 C50.1388462,17.715974 47.7666264,20.1388462 44.8671538,20.1388462 L44.8671538,20.1388462 L35.4105385,20.1388462 C32.5111495,20.1388462 30.1388462,17.715974 30.1388462,14.7548994 L30.1388462,14.7548994 L30.1388462,5.52279286 C30.1388462,2.56163471 32.5111495,0.138846154 35.4105385,0.138846154 L35.4105385,0.138846154 Z M44.6990648,1.92889789 L35.5787111,1.92889789 C33.5714225,1.92889789 31.9290651,3.60619376 31.9290651,5.65619418 L31.9290651,5.65619418 L31.9290651,14.621331 C31.9290651,16.6713314 33.5714225,18.3487108 35.5787111,18.3487108 L35.5787111,18.3487108 L44.6990648,18.3487108 C46.7063534,18.3487108 48.3487108,16.6713314 48.3487108,14.621331 L48.3487108,14.621331 L48.3487108,5.65627776 C48.3487108,3.60627734 46.7063534,1.92889789 44.6990648,1.92889789 L44.6990648,1.92889789 Z M40.1388046,4.75423077 C42.9002598,4.75423077 45.1388462,7.07887221 45.1388462,9.94658072 C45.1388462,12.8142892 42.9003429,15.1388462 40.1388877,15.1388462 C37.3773494,15.1388462 35.1388462,12.8142047 35.1388462,9.94649621 C35.1388462,7.0787877 37.3772663,4.75423077 40.1388046,4.75423077 Z M40.1388877,6.59665299 C38.3571777,6.5967375 36.9130759,8.09638349 36.9129928,9.94658072 C36.9129928,11.7966934 38.3571777,13.2965084 40.1388046,13.2965084 C41.9205146,13.2964239 43.3646995,11.7966089 43.3646995,9.94649621 C43.3646995,8.09638349 41.9205146,6.59665299 40.1388877,6.59665299 Z M45.1388462,3.60038462 C45.7760777,3.60038462 46.2926923,4.11694774 46.2926923,4.75427235 C46.2926923,5.3915138 45.7760777,5.90807692 45.1388462,5.90807692 C44.5015296,5.90807692 43.985,5.3915138 43.985,4.75427235 C43.985,4.11694774 44.5015296,3.60038462 45.1388462,3.60038462 Z" id="Icon-instagram"></path>
            </g>
        </g>
    </g>
</svg>