<?xml version="1.0" encoding="UTF-8"?>
<svg width="222px" height="69px" viewBox="0 0 222 69" version="1.1" xmlns="http://www.w3.org/2000/svg" xmlns:xlink="http://www.w3.org/1999/xlink">
    <title>Group 15</title>
    <g id="Symbols" stroke="none" stroke-width="1" fill="none" fill-rule="evenodd">
        <g id="brand/logo" fill="#010202">
            <g id="Group-15">
                <polygon id="Fill-1" points="0 5 222 5 222 0 0 0"></polygon>
                <polygon id="Fill-2" points="0 69 222 69 222 64 0 64"></polygon>
                <g id="Group-14" transform="translate(0.000000, 12.000000)">
                    <path d="M5.80096932,36.9138395 L14.9668784,36.9138395 C25.8024125,36.9138395 29.904367,30.418491 29.904367,22.0792527 C29.904367,13.7113485 25.8024125,7.30115449 14.9668784,7.30115449 L5.80096932,7.30115449 L5.80096932,36.9138395 Z M15.9288784,1.76990659 C27.9807875,1.76990659 35.8172193,9.31493174 35.8172193,21.9658539 C35.8172193,34.4742898 28.206992,42.4446659 15.7871852,42.4446659 L0.00163977273,42.4446659 L0.00163977273,1.76990659 L15.9288784,1.76990659 Z" id="Fill-3"></path>
                    <polygon id="Fill-5" points="50.5596591 7.30195545 50.5865682 19.3146405 73.0443068 19.3146405 73.0443068 24.8741327 50.5865682 24.8741327 50.5596591 36.9146405 73.0224432 36.9146405 73.0224432 42.4454668 44.7599091 42.4454668 44.7599091 1.77070754 73.0224432 1.77070754 73.0224432 7.30195545"></polygon>
                    <path d="M82.5743716,13.7708302 C82.5743716,7.0014697 89.3340193,0.862336766 98.669792,0.862336766 C107.326951,0.862336766 114.05969,4.80473677 114.05969,13.002332 C114.05969,21.9089859 106.110156,23.2419487 98.9245875,24.4619344 C92.9549739,25.4829451 87.523542,26.4188014 87.523542,31.4677883 C87.523542,35.6374074 91.2294284,38.1616901 97.0005875,38.1616901 C103.39444,38.1616901 108.090497,35.0699919 109.080667,29.1416374 L114.965349,29.142902 C114.965349,37.3177332 106.449883,43.3809859 97.2272125,43.3809859 C88.258917,43.3809859 81.6670307,38.6439511 81.6670307,30.5884206 C81.6670307,21.710011 89.6733261,20.4904469 96.8311443,19.3560374 C102.686815,18.4201811 108.204019,17.5408134 108.204019,12.4066721 C108.204019,8.15189844 104.440951,6.08121102 99.0376898,6.08121102 C92.8137011,6.08121102 89.1078148,8.83271281 88.2021557,13.7683008 L82.5743716,13.7708302 Z" id="Fill-7"></path>
                    <polygon id="Fill-9" points="158.554881 1.76982228 142.372847 42.4445816 135.922233 42.4445816 119.740199 1.76982228 125.992358 1.76982228 139.14754 35.5238822 152.330892 1.76982228"></polygon>
                    <polygon id="Fill-11" points="166.235534 42.4446659 172.034864 42.4446659 172.034864 1.76990659 166.235534 1.76990659"></polygon>
                    <path d="M200.895957,6.43700503 C192.5184,6.43700503 185.701991,13.2712853 185.701991,21.6708062 C185.701991,30.0703272 192.5184,36.9041859 200.895957,36.9041859 C209.273514,36.9041859 216.089923,30.0703272 216.089923,21.6708062 C216.089923,13.2712853 209.273514,6.43700503 200.895957,6.43700503 M200.895957,42.4851775 C189.448241,42.4851775 180.136014,33.148114 180.136014,21.6708062 C180.136014,10.1930769 189.448241,0.85643497 200.895957,0.85643497 C212.343673,0.85643497 221.6559,10.1930769 221.6559,21.6708062 C221.6559,33.148114 212.343673,42.4851775 200.895957,42.4851775" id="Fill-13"></path>
                </g>
            </g>
        </g>
    </g>
</svg>