<?xml version="1.0" encoding="UTF-8"?>
<svg width="222px" height="71px" viewBox="0 0 222 71" version="1.1" xmlns="http://www.w3.org/2000/svg" xmlns:xlink="http://www.w3.org/1999/xlink">
    <title>brand/logo</title>
    <g id="brand/logo" stroke="none" stroke-width="1" fill="none" fill-rule="evenodd">
        <path d="M222,65 L222,71 L0,71 L0,65 L222,65 Z M98.8504344,14 C107.430034,14 114.102455,17.9870317 114.102455,26.2774313 C114.102455,35.2849169 106.22414,36.6329701 99.1029471,37.8667671 C93.186815,38.8993367 87.8040431,39.8457878 87.8040431,44.9519338 C87.8040431,49.168757 91.4767286,51.7216169 97.1961842,51.7216169 C103.532754,51.7216169 108.186739,48.5949178 109.168039,42.5994487 L115,42.6007277 C113.682017,50.8911274 106.560824,57 97.4207788,57 C88.5328299,57 82,52.2093376 82,44.0626109 C82,35.0836894 89.9345674,33.8503188 97.028259,32.7030666 C102.831469,31.7566155 108.299245,30.8672926 108.299245,25.675028 C108.299245,21.3720863 104.56989,19.2779568 99.2150361,19.2779568 C93.0468079,19.2779568 89.3741224,22.0606082 88.4765771,27.0520717 L82.8992121,27.0546296 C84.0484368,19.9119085 89.5983004,14 98.8504344,14 Z M16.0092507,15 C28.1232171,15 36,22.6053562 36,35.3574368 C36,47.9658918 28.3505864,56 15.8668279,56 L0,56 L0,15 L16.0092507,15 Z M71.9783562,15 L71.9783562,20.5754765 L49.7414339,20.5754765 L49.7680724,32.6842165 L72,32.6842165 L72,38.2881632 L49.7680724,38.2881632 L49.7414339,50.4249484 L71.9783562,50.4249484 L71.9783562,56 L44,56 L44,15 L71.9783562,15 Z M126.28201,15 L139.5,49.0239618 L152.746295,15 L159,15 L142.740706,56 L136.259294,56 L120,15 L126.28201,15 Z M172,15 L172,56 L166,56 L166,15 L172,15 Z M201,14 C212.580091,14 222,23.4199089 222,35 C222,46.5796658 212.580091,56 201,56 C189.419909,56 180,46.5796658 180,35 C180,23.4199089 189.419909,14 201,14 Z M15.0422972,20.5754765 L5.82919127,20.5754765 L5.82919127,50.4249484 L15.0422972,50.4249484 C25.9336253,50.4249484 30.0567015,43.8776623 30.0567015,35.4717423 C30.0567015,27.0369273 25.9336253,20.5754765 15.0422972,20.5754765 Z M201,19.6303392 C192.52557,19.6303392 185.630339,26.5255696 185.630339,35 C185.630339,43.4744304 192.52557,50.3692354 201,50.3692354 C209.47443,50.3692354 216.369661,43.4744304 216.369661,35 C216.369661,26.5255696 209.47443,19.6303392 201,19.6303392 Z M222,0 L222,6 L0,6 L0,0 L222,0 Z" id="Combined-Shape" fill="#000000"></path>
    </g>
</svg>